<!-- Generated by IcoMoon.io -->
<svg version="1.1" xmlns="http://www.w3.org/2000/svg" width="105" height="32" viewBox="0 0 105 32">
<path fill="#262626" d="M9.226 25.42c-1.475 0-2.711-0.35-3.71-1.050s-1.75-1.652-2.254-2.856c-0.504-1.213-0.756-2.571-0.756-4.074 0-1.521 0.252-2.884 0.756-4.088s1.241-2.151 2.212-2.842c0.98-0.7 2.189-1.050 3.626-1.050 1.428 0 2.665 0.35 3.71 1.050 1.055 0.691 1.871 1.638 2.45 2.842 0.579 1.195 0.868 2.557 0.868 4.088 0 1.512-0.285 2.87-0.854 4.074s-1.372 2.156-2.408 2.856c-1.036 0.7-2.249 1.050-3.64 1.050zM1.932 31.72v-21.84h2.982v10.612h0.42v11.228h-3.402zM8.708 22.396c0.877 0 1.601-0.219 2.17-0.658s0.989-1.031 1.26-1.778c0.28-0.756 0.42-1.596 0.42-2.52 0-0.915-0.14-1.745-0.42-2.492-0.28-0.756-0.714-1.353-1.302-1.792-0.588-0.448-1.335-0.672-2.24-0.672-0.859 0-1.559 0.21-2.1 0.63-0.541 0.411-0.943 0.989-1.204 1.736-0.252 0.737-0.378 1.601-0.378 2.59 0 0.98 0.126 1.843 0.378 2.59 0.261 0.747 0.667 1.33 1.218 1.75 0.56 0.411 1.293 0.616 2.198 0.616zM24.968 25.42c-1.531 0-2.875-0.331-4.032-0.994s-2.063-1.582-2.716-2.758c-0.644-1.176-0.966-2.529-0.966-4.060 0-1.652 0.317-3.085 0.952-4.298 0.635-1.223 1.517-2.17 2.646-2.842s2.436-1.008 3.92-1.008c1.568 0 2.898 0.369 3.99 1.106 1.101 0.728 1.918 1.759 2.45 3.094s0.733 2.907 0.602 4.718h-3.346v-1.232c-0.009-1.643-0.299-2.842-0.868-3.598s-1.465-1.134-2.688-1.134c-1.381 0-2.408 0.429-3.080 1.288-0.672 0.849-1.008 2.095-1.008 3.738 0 1.531 0.336 2.716 1.008 3.556s1.652 1.26 2.94 1.26c0.831 0 1.545-0.182 2.142-0.546 0.607-0.373 1.073-0.91 1.4-1.61l3.332 1.008c-0.579 1.363-1.475 2.422-2.688 3.178-1.204 0.756-2.534 1.134-3.99 1.134zM19.76 18.378v-2.548h10.402v2.548h-10.402zM42.68 25c-0.999 0.187-1.979 0.266-2.94 0.238-0.952-0.019-1.806-0.191-2.562-0.518-0.756-0.336-1.33-0.863-1.722-1.582-0.345-0.653-0.527-1.321-0.546-2.002s-0.028-1.451-0.028-2.31v-13.146h3.36v12.95c0 0.607 0.005 1.139 0.014 1.596 0.019 0.457 0.117 0.831 0.294 1.12 0.336 0.56 0.873 0.873 1.61 0.938s1.577 0.028 2.52-0.112v2.828zM32.138 12.526v-2.646h10.542v2.646h-10.542zM45.091 25v-20.58h3.374v20.58h-3.374z"></path>
<path fill="#f6b83d" d="M62.493 10.434c-1.839-2.172-4.907-2.756-7.211-0.767s-2.629 5.314-0.819 7.666c1.159 1.506 4.128 4.3 6.113 6.114 0.66 0.603 0.989 0.904 1.384 1.025 0.34 0.104 0.728 0.104 1.067 0 0.395-0.121 0.725-0.422 1.384-1.025 1.985-1.814 4.954-4.608 6.113-6.114 1.81-2.352 1.525-5.698-0.819-7.666s-5.372-1.405-7.211 0.767z"></path>
<path fill="#262626" d="M80.048 25l-5.488-15.12h3.374l3.808 10.962 3.794-10.962h3.388l-5.488 15.12h-3.388zM96.644 25.42c-1.531 0-2.875-0.331-4.032-0.994s-2.063-1.582-2.716-2.758c-0.644-1.176-0.966-2.529-0.966-4.060 0-1.652 0.317-3.085 0.952-4.298 0.635-1.223 1.517-2.17 2.646-2.842s2.436-1.008 3.92-1.008c1.568 0 2.898 0.369 3.99 1.106 1.101 0.728 1.918 1.759 2.45 3.094s0.732 2.907 0.602 4.718h-3.346v-1.232c-0.010-1.643-0.299-2.842-0.868-3.598s-1.465-1.134-2.688-1.134c-1.381 0-2.408 0.429-3.080 1.288-0.672 0.849-1.008 2.095-1.008 3.738 0 1.531 0.336 2.716 1.008 3.556s1.652 1.26 2.94 1.26c0.831 0 1.545-0.182 2.142-0.546 0.607-0.373 1.073-0.91 1.4-1.61l3.332 1.008c-0.579 1.363-1.475 2.422-2.688 3.178-1.204 0.756-2.534 1.134-3.99 1.134zM91.436 18.378v-2.548h10.402v2.548h-10.402z"></path>
</svg>
